{
  "accessors": [
    {
      "bufferView": 1,
      "componentType": 5126,
      "count": 14997,
      "max": [398.223876953125, 402.4467468261719, 400.331298828125],
      "min": [-401.0557556152344, -397.62200927734375, -401.0777587890625],
      "type": "VEC3"
    },
    {
      "bufferView": 1,
      "byteOffset": 179964,
      "componentType": 5126,
      "count": 14997,
      "max": [0.9976682066917419, 0.9990366697311401, 1.0],
      "min": [-0.994679868221283, -0.9967354536056519, -0.9993699789047241],
      "type": "VEC3"
    },
    {
      "bufferView": 0,
      "componentType": 5125,
      "count": 15000,
      "type": "SCALAR"
    }
  ],
  "asset": {
    "extras": {
      "author": "Thomas Flynn (https://sketchfab.com/nebulousflynn)",
      "license": "CC-BY-4.0 (http://creativecommons.org/licenses/by/4.0/)",
      "source": "https://sketchfab.com/3d-models/5000-triangles-51443069e5c748a7b1a06d2c9ffb296c",
      "title": "5000 Triangles"
    },
    "generator": "Sketchfab-12.65.0",
    "version": "2.0"
  },
  "bufferViews": [
    {
      "buffer": 0,
      "byteLength": 60000,
      "name": "floatBufferViews",
      "target": 34963
    },
    {
      "buffer": 0,
      "byteLength": 359928,
      "byteOffset": 60000,
      "byteStride": 12,
      "name": "floatBufferViews",
      "target": 34962
    }
  ],
  "buffers": [
    {
      "byteLength": 419928,
      "uri": "triangles.bin"
    }
  ],
  "materials": [
    {
      "doubleSided": true,
      "emissiveFactor": [0.5, 0.09706599137046412, 0.0],
      "name": "Scene_-_Root",
      "pbrMetallicRoughness": {
        "baseColorFactor": [0.9406652057935939, 0.7074685396495116, 0.08517394903602288, 1.0],
        "roughnessFactor": 0.47000000000000003
      }
    }
  ],
  "meshes": [
    {
      "name": "Plane.616_0",
      "primitives": [
        {
          "attributes": {
            "NORMAL": 1,
            "POSITION": 0
          },
          "indices": 2,
          "material": 0,
          "mode": 4
        }
      ]
    }
  ],
  "nodes": [
    {
      "children": [1],
      "matrix": [1.0, 0.0, 0.0, 0.0, 0.0, 2.220446049250313e-16, -1.0, 0.0, 0.0, 1.0, 2.220446049250313e-16, 0.0, 0.0, 0.0, 0.0, 1.0],
      "name": "Sketchfab_model"
    },
    {
      "children": [2],
      "name": "Root"
    },
    {
      "children": [3],
      "name": "Plane.616",
      "rotation": [-0.523068904876709, -0.4121091663837433, -0.3198293447494507, 0.6739986538887024],
      "scale": [0.01322999969124794, 0.01322999969124794, 0.01322999969124794],
      "translation": [0.0023799999617040157, 0.0027099999133497477, 0.04399000108242035]
    },
    {
      "mesh": 0,
      "name": "Plane.616_0"
    }
  ],
  "scene": 0,
  "scenes": [
    {
      "name": "Sketchfab_Scene",
      "nodes": [0]
    }
  ]
}
