# Blender 3.6.4
# www.blender.org
o Cylinder
v -0.000000 0.013147 -0.000000
v -0.000000 1.630374 -0.000000
v -0.000000 0.214014 -0.181829
v -0.000000 1.630374 -0.480374
v 0.128573 0.214014 -0.128573
v 0.339676 1.630374 -0.339676
v 0.181829 0.214014 0.000000
v 0.480374 1.630374 0.000000
v 0.128573 0.214014 0.128573
v 0.339676 1.630374 0.339676
v -0.000000 0.214014 0.181829
v -0.000000 1.630374 0.480374
v -0.128573 0.214014 0.128572
v -0.339676 1.630374 0.339676
v -0.181829 0.214014 -0.000000
v -0.480374 1.630374 -0.000000
v -0.128573 0.214014 -0.128572
v -0.339676 1.630374 -0.339676
v -0.000000 1.189324 -0.870481
v 0.615523 1.189324 -0.615523
v 0.870481 1.189324 0.000000
v 0.615523 1.189324 0.615523
v -0.000000 1.189324 0.870481
v -0.615523 1.189324 0.615523
v -0.870481 1.189324 -0.000000
v -0.615523 1.189324 -0.615523
v 0.615523 1.161642 -0.615523
v 0.870481 1.161642 0.000000
v 0.615523 1.161642 0.615523
v -0.000000 1.161642 0.870481
v -0.615523 1.161642 0.615523
v -0.870481 1.161642 -0.000000
v -0.615523 1.161642 -0.615523
v -0.000000 1.161642 -0.870481
v -0.000000 1.425007 -0.900457
v 0.636719 1.425007 -0.636719
v 0.900457 1.425007 -0.000000
v 0.636719 1.425007 0.636719
v -0.000000 1.425007 0.900457
v -0.636719 1.425007 0.636719
v -0.900457 1.425007 0.000000
v -0.636719 1.425007 -0.636719
v -0.353553 1.221704 -0.853553
v -0.853553 1.221704 -0.353553
v -0.853553 1.221704 0.353553
v -0.353554 1.221704 0.853553
v 0.353553 1.221704 0.853553
v 0.853553 1.221704 0.353553
v 0.853553 1.221704 -0.353553
v 0.353553 1.221704 -0.853553
v 0.353553 1.129262 -0.853553
v 0.853553 1.129262 -0.353553
v 0.853553 1.129262 0.353553
v 0.353553 1.129262 0.853553
v -0.353554 1.129262 0.853553
v -0.853553 1.129262 0.353553
v -0.853553 1.129262 -0.353553
v -0.353553 1.129262 -0.853553
vn 0.2936 -0.6415 -0.7087
vn 0.2936 -0.6414 -0.7088
vn -0.0000 1.0000 -0.0000
vn 0.1790 0.8839 -0.4321
vn 0.7087 -0.6415 -0.2936
vn 0.7088 -0.6414 -0.2936
vn 0.4321 0.8839 -0.1790
vn 0.7087 -0.6415 0.2936
vn 0.7088 -0.6414 0.2936
vn 0.4321 0.8839 0.1790
vn 0.2936 -0.6415 0.7087
vn 0.2936 -0.6414 0.7088
vn 0.1790 0.8839 0.4321
vn -0.2936 -0.6415 0.7087
vn -0.2936 -0.6414 0.7088
vn -0.1790 0.8839 0.4321
vn -0.7087 -0.6415 0.2936
vn -0.7088 -0.6414 0.2936
vn -0.4321 0.8839 0.1790
vn -0.7087 -0.6415 -0.2936
vn -0.7088 -0.6414 -0.2936
vn -0.4321 0.8839 -0.1790
vn -0.2936 -0.6415 -0.7087
vn -0.2936 -0.6414 -0.7088
vn -0.1790 0.8839 -0.4321
vn -0.0478 -0.0000 -0.9989
vn -0.7401 -0.0000 -0.6725
vn -0.9989 -0.0000 0.0478
vn -0.6725 -0.0000 0.7401
vn 0.0478 -0.0000 0.9989
vn 0.7401 -0.0000 0.6725
vn 0.9989 -0.0000 -0.0478
vn 0.6725 -0.0000 -0.7401
vn 0.5826 -0.5878 -0.5613
vn 0.8089 -0.5878 0.0151
vn 0.5613 -0.5878 0.5826
vn -0.0151 -0.5878 0.8089
vn -0.5826 -0.5878 0.5613
vn -0.8089 -0.5878 -0.0151
vn -0.5613 -0.5878 -0.5826
vn 0.0151 -0.5878 -0.8089
vn -0.0589 -0.1260 -0.9903
vn -0.7419 -0.1260 -0.6586
vn -0.9903 -0.1260 0.0589
vn -0.6586 -0.1260 0.7419
vn 0.0589 -0.1260 0.9903
vn 0.7419 -0.1260 0.6586
vn 0.9903 -0.1260 -0.0589
vn 0.6586 -0.1260 -0.7419
vn 0.0478 -0.0000 -0.9989
vn 0.7401 -0.0000 -0.6725
vn 0.9989 -0.0000 0.0478
vn 0.6725 -0.0000 0.7401
vn -0.0478 -0.0000 0.9989
vn -0.7401 -0.0000 0.6725
vn -0.9989 -0.0000 -0.0478
vn -0.6725 -0.0000 -0.7401
vn 0.2951 -0.6368 -0.7123
vn -0.0151 -0.5878 -0.8089
vn 0.7123 -0.6368 -0.2951
vn 0.5613 -0.5878 -0.5826
vn 0.7123 -0.6368 0.2951
vn 0.8089 -0.5878 -0.0151
vn 0.2951 -0.6368 0.7123
vn 0.5826 -0.5878 0.5613
vn -0.2951 -0.6368 0.7123
vn 0.0151 -0.5878 0.8089
vn -0.7123 -0.6368 0.2951
vn -0.5613 -0.5878 0.5826
vn -0.7123 -0.6368 -0.2951
vn -0.8089 -0.5878 0.0151
vn -0.2951 -0.6368 -0.7123
vn -0.5826 -0.5878 -0.5613
vn -0.6586 -0.1260 -0.7419
vn -0.3487 0.4122 -0.8418
vn -0.9903 -0.1260 -0.0589
vn -0.8418 0.4122 -0.3487
vn -0.7419 -0.1260 0.6586
vn -0.8418 0.4122 0.3487
vn -0.0589 -0.1260 0.9903
vn -0.3487 0.4122 0.8418
vn 0.6586 -0.1260 0.7419
vn 0.3487 0.4122 0.8418
vn 0.9903 -0.1260 0.0589
vn 0.8418 0.4122 0.3487
vn 0.7419 -0.1260 -0.6586
vn 0.8418 0.4122 -0.3487
vn 0.0589 -0.1260 -0.9903
vn 0.3487 0.4122 -0.8418
vt 0.750000 0.250000
vt 0.750000 0.490000
vt 0.919706 0.419706
vt 0.250000 0.250000
vt 0.419706 0.419706
vt 0.250000 0.490000
vt 1.000000 0.875000
vt 0.875000 1.000000
vt 0.875000 0.875000
vt 0.990000 0.250000
vt 0.490000 0.250000
vt 0.750000 1.000000
vt 0.750000 0.875000
vt 0.919706 0.080294
vt 0.419706 0.080294
vt 0.625000 1.000000
vt 0.625000 0.875000
vt 0.750000 0.010000
vt 0.250000 0.010000
vt 0.500000 1.000000
vt 0.500000 0.875000
vt 0.580294 0.080294
vt 0.080294 0.080294
vt 0.375000 1.000000
vt 0.375000 0.875000
vt 0.510000 0.250000
vt 0.010000 0.250000
vt 0.250000 1.000000
vt 0.250000 0.875000
vt 0.580294 0.419706
vt 0.080294 0.419706
vt 0.125000 1.000000
vt 0.125000 0.875000
vt 0.000000 1.000000
vt 0.000000 0.875000
vt 0.062500 0.625000
vt 0.062500 0.750000
vt 0.000000 0.750000
vt 0.000000 0.625000
vt 0.187500 0.625000
vt 0.187500 0.750000
vt 0.125000 0.750000
vt 0.125000 0.625000
vt 0.312500 0.625000
vt 0.312500 0.750000
vt 0.250000 0.750000
vt 0.250000 0.625000
vt 0.437500 0.625000
vt 0.437500 0.750000
vt 0.375000 0.750000
vt 0.375000 0.625000
vt 0.562500 0.625000
vt 0.562500 0.750000
vt 0.500000 0.750000
vt 0.500000 0.625000
vt 0.687500 0.625000
vt 0.687500 0.750000
vt 0.625000 0.750000
vt 0.625000 0.625000
vt 0.812500 0.625000
vt 0.812500 0.750000
vt 0.750000 0.750000
vt 0.750000 0.625000
vt 0.937500 0.625000
vt 0.937500 0.750000
vt 0.875000 0.750000
vt 0.875000 0.625000
vt 0.875000 0.500000
vt 0.750000 0.500000
vt 0.625000 0.500000
vt 0.500000 0.500000
vt 0.375000 0.500000
vt 0.250000 0.500000
vt 0.125000 0.500000
vt 0.000000 0.500000
vt 1.000000 0.625000
vt 1.000000 0.750000
vt 1.000000 0.500000
vt 1.000000 1.000000
s 1
f 1/1/1 3/2/2 5/3/2
f 2/4/3 6/5/3 4/6/3
f 35/7/4 6/8/4 36/9/4
f 1/1/5 5/3/6 7/10/6
f 2/4/3 8/11/3 6/5/3
f 36/9/7 8/12/7 37/13/7
f 1/1/8 7/10/9 9/14/9
f 2/4/3 10/15/3 8/11/3
f 37/13/10 10/16/10 38/17/10
f 1/1/11 9/14/12 11/18/12
f 2/4/3 12/19/3 10/15/3
f 38/17/13 12/20/13 39/21/13
f 1/1/14 11/18/15 13/22/15
f 2/4/3 14/23/3 12/19/3
f 39/21/16 14/24/16 40/25/16
f 1/1/17 13/22/18 15/26/18
f 2/4/3 16/27/3 14/23/3
f 40/25/19 16/28/19 41/29/19
f 1/1/20 15/26/21 17/30/21
f 2/4/3 18/31/3 16/27/3
f 41/29/22 18/32/22 42/33/22
f 1/1/23 17/30/24 3/2/24
f 2/4/3 4/6/3 18/31/3
f 42/33/25 4/34/25 35/35/25
f 58/36/26 43/37/26 19/38/26 34/39/26
f 57/40/27 44/41/27 26/42/27 33/43/27
f 56/44/28 45/45/28 25/46/28 32/47/28
f 55/48/29 46/49/29 24/50/29 31/51/29
f 54/52/30 47/53/30 23/54/30 30/55/30
f 53/56/31 48/57/31 22/58/31 29/59/31
f 52/60/32 49/61/32 21/62/32 28/63/32
f 51/64/33 50/65/33 20/66/33 27/67/33
f 51/64/34 27/67/34 5/68/34
f 52/60/35 28/63/35 7/69/35
f 53/56/36 29/59/36 9/70/36
f 54/52/37 30/55/37 11/71/37
f 55/48/38 31/51/38 13/72/38
f 56/44/39 32/47/39 15/73/39
f 57/40/40 33/43/40 17/74/40
f 58/36/41 34/39/41 3/75/41
f 35/35/42 19/38/42 43/37/42
f 42/33/43 26/42/43 44/41/43
f 41/29/44 25/46/44 45/45/44
f 40/25/45 24/50/45 46/49/45
f 39/21/46 23/54/46 47/53/46
f 38/17/47 22/58/47 48/57/47
f 37/13/48 21/62/48 49/61/48
f 36/9/49 20/66/49 50/65/49
f 34/76/50 19/77/50 50/65/50 51/64/50
f 27/67/51 20/66/51 49/61/51 52/60/51
f 28/63/52 21/62/52 48/57/52 53/56/52
f 29/59/53 22/58/53 47/53/53 54/52/53
f 30/55/54 23/54/54 46/49/54 55/48/54
f 31/51/55 24/50/55 45/45/55 56/44/55
f 32/47/56 25/46/56 44/41/56 57/40/56
f 33/43/57 26/42/57 43/37/57 58/36/57
f 5/68/2 3/78/2 51/64/58
f 3/78/59 34/76/59 51/64/59
f 7/69/6 5/68/6 52/60/60
f 5/68/61 27/67/61 52/60/61
f 9/70/9 7/69/9 53/56/62
f 7/69/63 28/63/63 53/56/63
f 11/71/12 9/70/12 54/52/64
f 9/70/65 29/59/65 54/52/65
f 13/72/15 11/71/15 55/48/66
f 11/71/67 30/55/67 55/48/67
f 15/73/18 13/72/18 56/44/68
f 13/72/69 31/51/69 56/44/69
f 17/74/21 15/73/21 57/40/70
f 15/73/71 32/47/71 57/40/71
f 3/75/24 17/74/24 58/36/72
f 17/74/73 33/43/73 58/36/73
f 43/37/74 26/42/74 42/33/74
f 42/33/75 35/35/75 43/37/75
f 44/41/76 25/46/76 41/29/76
f 41/29/77 42/33/77 44/41/77
f 45/45/78 24/50/78 40/25/78
f 40/25/79 41/29/79 45/45/79
f 46/49/80 23/54/80 39/21/80
f 39/21/81 40/25/81 46/49/81
f 47/53/82 22/58/82 38/17/82
f 38/17/83 39/21/83 47/53/83
f 48/57/84 21/62/84 37/13/84
f 37/13/85 38/17/85 48/57/85
f 49/61/86 20/66/86 36/9/86
f 36/9/87 37/13/87 49/61/87
f 50/65/88 19/77/88 35/7/88
f 35/7/89 36/9/89 50/65/89
f 35/7/4 4/79/4 6/8/4
f 36/9/7 6/8/7 8/12/7
f 37/13/10 8/12/10 10/16/10
f 38/17/13 10/16/13 12/20/13
f 39/21/16 12/20/16 14/24/16
f 40/25/19 14/24/19 16/28/19
f 41/29/22 16/28/22 18/32/22
f 42/33/25 18/32/25 4/34/25
