# Blender 3.6.1
# www.blender.org
mtllib pyramid.mtl
o Cone
v 0.000000 -0.008187 -1.000000
v 1.000000 -0.008187 0.000000
v 0.000000 -0.008187 1.000000
v -1.000000 -0.008187 0.000000
v 0.000000 1.315669 0.000000
vn 0.6237 0.4711 -0.6237
vn 0.6237 0.4711 0.6237
vn -0.0000 -1.0000 -0.0000
vn -0.6237 0.4711 0.6237
vn -0.6237 0.4711 -0.6237
vt 0.250000 0.490000
vt 0.250000 0.250000
vt 0.490000 0.250000
vt 0.250000 0.010000
vt 0.750000 0.490000
vt 0.990000 0.250000
vt 0.750000 0.010000
vt 0.510000 0.250000
vt 0.010000 0.250000
s 0
f 1/1/1 5/2/1 2/3/1
f 2/3/2 5/2/2 3/4/2
f 1/5/3 2/6/3 3/7/3 4/8/3
f 3/4/4 5/2/4 4/9/4
f 4/9/5 5/2/5 1/1/5
